<svg width="705" height="323" viewBox="0 0 705 323" fill="none" xmlns="http://www.w3.org/2000/svg">
<rect x="34" y="30" width="671" height="293" fill="#403D39"/>
<rect x="2" y="2" width="289" height="289" fill="#CCC5B9" stroke="#252422" stroke-width="4"/>
<path fill-rule="evenodd" clip-rule="evenodd" d="M92.5205 58C118.302 58 140.183 81.1779 147.983 113.344C146.024 115.072 144.101 116.873 142.215 118.766C125.077 135.97 114.548 156.685 111.417 176.224C109.22 189.844 110.611 202.931 115.775 213.977C110.794 216.973 105.448 219.05 99.863 220.025C110.703 177.069 105.466 155.711 97.3545 135.934C89.4993 116.781 78.8425 96.2499 90.8726 58.0184C91.4036 58.0184 91.9712 58 92.5205 58ZM245.615 107.536C268.467 130.475 261.344 174.827 229.703 206.588C200.498 235.905 160.617 244.25 136.686 227.34C174.607 204.658 185.941 185.837 194.144 166.096C202.073 146.98 209.012 124.887 244.443 106.414C244.828 106.764 245.23 107.15 245.615 107.536ZM132.84 224.271C132.218 223.719 131.614 223.149 131.028 222.561C108.176 199.622 115.299 155.27 146.939 123.508C176.749 93.5848 217.673 85.5157 241.422 103.841C203.427 123.104 193.155 139.279 184.806 159.406C176.969 178.264 168.491 202.434 132.84 224.271ZM94.9924 220.594C94.1685 220.65 93.3445 220.668 92.5205 220.668C60.2024 220.668 34 184.256 34 139.334C34 97.0219 57.2544 62.2459 86.9724 58.3676C73.6606 98.9519 77.7988 117.682 86.0569 137.827C93.8022 156.74 104.825 179.845 94.9924 220.594Z" fill="#EB5E28"/>
<mask id="path-4-inside-1_183_45" fill="white">
<path d="M292 0H675V145H292V0Z"/>
</mask>
<path d="M292 0H675V145H292V0Z" fill="#CCC5B9"/>
<path d="M675 0H679V-4H675V0ZM675 145V149H679V145H675ZM292 4H675V-4H292V4ZM671 0V145H679V0H671ZM675 141H292V149H675V141Z" fill="black" mask="url(#path-4-inside-1_183_45)"/>
<path d="M350.2 63.9C352.667 63.9 354.933 64.2 357 64.8C359.133 65.3333 360.967 66.1 362.5 67.1C364.1 68.1 365.367 69.3667 366.3 70.9C367.233 72.3667 367.7 74 367.7 75.8C367.7 78 367.033 79.7667 365.7 81.1C364.367 82.4333 362.7 83.1 360.7 83.1C358.633 83.1 356.933 82.5 355.6 81.3C354.333 80.1 353.7 78.5 353.7 76.5C353.7 74.5667 354.267 72.9667 355.4 71.7C356.533 70.4333 357.9 69.6 359.5 69.2C358.9 68.3333 357.967 67.6333 356.7 67.1C355.433 66.5 354.033 66.2 352.5 66.2C350.5 66.2 348.7 66.7333 347.1 67.8C345.5 68.8 344.1 70.3333 342.9 72.4C341.767 74.4 340.867 76.9 340.2 79.9C339.6 82.8333 339.3 86.2333 339.3 90.1C339.3 95.5 339.933 99.7667 341.2 102.9C342.533 106.033 344.233 108.267 346.3 109.6C348.367 110.867 350.567 111.5 352.9 111.5C354.3 111.5 355.8 111.233 357.4 110.7C359 110.167 360.567 109.267 362.1 108C363.7 106.733 365.133 104.933 366.4 102.6L368.3 103.3C367.567 105.633 366.367 107.967 364.7 110.3C363.1 112.633 361 114.567 358.4 116.1C355.8 117.633 352.633 118.4 348.9 118.4C344.633 118.4 340.767 117.433 337.3 115.5C333.833 113.5 331.067 110.5 329 106.5C327 102.5 326 97.5333 326 91.6C326 85.7333 327.033 80.7667 329.1 76.7C331.167 72.5667 334.033 69.4 337.7 67.2C341.433 65 345.6 63.9 350.2 63.9ZM404.316 63.9C408.916 63.9 412.983 64.8333 416.516 66.7C420.116 68.5 422.95 71.4 425.016 75.4C427.15 79.4 428.216 84.6667 428.216 91.2C428.216 97.7333 427.15 103 425.016 107C422.95 111 420.116 113.9 416.516 115.7C412.983 117.5 408.916 118.4 404.316 118.4C399.716 118.4 395.616 117.5 392.016 115.7C388.416 113.9 385.583 111 383.516 107C381.45 103 380.416 97.7333 380.416 91.2C380.416 84.6667 381.45 79.4 383.516 75.4C385.583 71.4 388.416 68.5 392.016 66.7C395.616 64.8333 399.716 63.9 404.316 63.9ZM404.316 65.9C401.183 65.9 398.616 67.9 396.616 71.9C394.683 75.8333 393.716 82.2667 393.716 91.2C393.716 100.133 394.683 106.567 396.616 110.5C398.616 114.433 401.183 116.4 404.316 116.4C407.383 116.4 409.916 114.433 411.916 110.5C413.916 106.567 414.916 100.133 414.916 91.2C414.916 82.2667 413.916 75.8333 411.916 71.9C409.916 67.9 407.383 65.9 404.316 65.9ZM468.676 42.8C472.276 42.8 475.509 43.6333 478.376 45.3C481.242 46.9667 483.142 49.4 484.076 52.6L482.376 53.5C481.642 51.0333 480.176 49 477.976 47.4C475.842 45.7333 473.142 44.9 469.876 44.9C466.342 44.9 463.742 46 462.076 48.2C460.409 50.4 459.576 53.9667 459.576 58.9V65.4H473.476V67.4H459.576V107.7C459.576 110.5 460.076 112.4 461.076 113.4C462.142 114.4 463.909 114.9 466.376 114.9V117C465.109 116.933 463.276 116.867 460.876 116.8C458.476 116.667 456.042 116.6 453.576 116.6C450.976 116.6 448.342 116.667 445.676 116.8C443.009 116.867 441.042 116.933 439.776 117V114.9C442.376 114.9 444.209 114.4 445.276 113.4C446.409 112.4 446.976 110.5 446.976 107.7V67.4H439.376V65.4H446.976C446.976 61.8 447.442 58.6 448.376 55.8C449.376 52.9333 450.842 50.5667 452.776 48.7C454.509 46.9 456.742 45.4667 459.476 44.4C462.276 43.3333 465.342 42.8 468.676 42.8ZM498.276 38.8C500.476 38.8 502.376 39.1 503.976 39.7C505.642 40.2333 507.109 40.9667 508.376 41.9C509.309 42.7 510.076 43.7 510.676 44.9C511.342 46.1 511.676 47.4333 511.676 48.9C511.676 50.7 511.076 52.2333 509.876 53.5C508.676 54.7667 507.109 55.4 505.176 55.4C503.176 55.4 501.509 54.8333 500.176 53.7C498.909 52.5 498.276 50.8667 498.276 48.8C498.276 47.2 498.709 45.8333 499.576 44.7C500.509 43.5 501.842 42.6667 503.576 42.2C503.376 41.7333 502.942 41.3333 502.276 41C501.609 40.6667 500.709 40.5 499.576 40.5C498.176 40.5 496.976 40.7667 495.976 41.3C495.042 41.8333 494.309 42.5667 493.776 43.5C493.042 44.6333 492.542 46.3 492.276 48.5C492.009 50.7 491.876 54.0333 491.876 58.5V65.4H502.576V67.4H491.876V106.7C491.876 109.967 492.742 112.167 494.476 113.3C496.276 114.367 498.676 114.9 501.676 114.9V117C500.009 116.933 497.676 116.867 494.676 116.8C491.676 116.667 488.476 116.6 485.076 116.6C482.676 116.6 480.276 116.667 477.876 116.8C475.542 116.867 473.742 116.933 472.476 117V114.9C474.942 114.9 476.676 114.4 477.676 113.4C478.742 112.4 479.276 110.5 479.276 107.7V67.4H472.076V65.4H479.276C479.276 61.4667 479.476 58.2 479.876 55.6C480.276 52.9333 480.909 50.6667 481.776 48.8C482.642 46.9333 483.776 45.2667 485.176 43.8C486.642 42.3333 488.509 41.1333 490.776 40.2C493.109 39.2667 495.609 38.8 498.276 38.8ZM535.503 63.9C541.37 63.9 545.97 65.6667 549.303 69.2C552.636 72.7333 554.303 78.3667 554.303 86.1H520.603L520.503 84.2H542.703C542.836 80.9333 542.636 77.9333 542.103 75.2C541.57 72.4 540.703 70.1667 539.503 68.5C538.37 66.8333 536.87 66 535.003 66C532.47 66 530.27 67.5 528.403 70.5C526.536 73.4333 525.37 78.2667 524.903 85L525.303 85.6C525.17 86.4667 525.07 87.4 525.003 88.4C525.003 89.4 525.003 90.4 525.003 91.4C525.003 96 525.67 99.8 527.003 102.8C528.336 105.8 530.07 108 532.203 109.4C534.336 110.8 536.536 111.5 538.803 111.5C540.336 111.5 541.903 111.267 543.503 110.8C545.103 110.333 546.67 109.467 548.203 108.2C549.736 106.933 551.136 105.133 552.403 102.8L554.303 103.6C553.57 105.933 552.336 108.267 550.603 110.6C548.936 112.867 546.77 114.733 544.103 116.2C541.436 117.667 538.303 118.4 534.703 118.4C530.17 118.4 526.17 117.4 522.703 115.4C519.236 113.4 516.536 110.433 514.603 106.5C512.67 102.5 511.703 97.6333 511.703 91.9C511.703 85.8333 512.703 80.7333 514.703 76.6C516.77 72.4667 519.603 69.3333 523.203 67.2C526.803 65 530.903 63.9 535.503 63.9ZM590.991 63.9C596.858 63.9 601.458 65.6667 604.791 69.2C608.125 72.7333 609.791 78.3667 609.791 86.1H576.091L575.991 84.2H598.191C598.325 80.9333 598.125 77.9333 597.591 75.2C597.058 72.4 596.191 70.1667 594.991 68.5C593.858 66.8333 592.358 66 590.491 66C587.958 66 585.758 67.5 583.891 70.5C582.025 73.4333 580.858 78.2667 580.391 85L580.791 85.6C580.658 86.4667 580.558 87.4 580.491 88.4C580.491 89.4 580.491 90.4 580.491 91.4C580.491 96 581.158 99.8 582.491 102.8C583.825 105.8 585.558 108 587.691 109.4C589.825 110.8 592.025 111.5 594.291 111.5C595.825 111.5 597.391 111.267 598.991 110.8C600.591 110.333 602.158 109.467 603.691 108.2C605.225 106.933 606.625 105.133 607.891 102.8L609.791 103.6C609.058 105.933 607.825 108.267 606.091 110.6C604.425 112.867 602.258 114.733 599.591 116.2C596.925 117.667 593.791 118.4 590.191 118.4C585.658 118.4 581.658 117.4 578.191 115.4C574.725 113.4 572.025 110.433 570.091 106.5C568.158 102.5 567.191 97.6333 567.191 91.9C567.191 85.8333 568.191 80.7333 570.191 76.6C572.258 72.4667 575.091 69.3333 578.691 67.2C582.291 65 586.391 63.9 590.991 63.9Z" fill="#252422"/>
<mask id="path-7-inside-2_183_45" fill="white">
<path d="M292 145H675V293H292V145Z"/>
</mask>
<path d="M292 145H675V293H292V145Z" fill="#CCC5B9"/>
<path d="M675 293V297H679V293H675ZM671 145V293H679V145H671ZM675 289H292V297H675V289Z" fill="black" mask="url(#path-7-inside-2_183_45)"/>
<path d="M351.074 254.529C342.552 253.742 338.255 252.023 338.183 249.373C337.825 229.536 337.682 205.348 337.753 176.81C337.467 176.237 336.84 175.753 335.874 175.359C330.896 177.723 325.722 179.191 320.351 179.764C320.136 180.659 320.136 181.5 320.351 182.288C324.397 182.539 327.477 183.273 329.589 184.49C329.876 211.417 329.84 233.045 329.482 249.373C329.41 252.023 326.367 253.742 320.351 254.529C319.993 255.424 319.993 256.302 320.351 257.161C328.658 256.875 338.899 256.875 351.074 257.161C351.432 256.302 351.432 255.424 351.074 254.529ZM353.007 252.542C353.616 254.762 353.616 256.928 353.007 259.041C339.222 258.755 327.674 258.755 318.364 259.041C317.791 256.928 317.791 254.762 318.364 252.542C324.236 251.969 327.208 250.877 327.28 249.266C327.709 228.247 327.745 207.103 327.387 185.833C324.988 185.081 321.98 184.598 318.364 184.383C317.576 182.27 317.576 179.996 318.364 177.562C323.806 177.275 329.894 175.664 336.625 172.728C340.528 173.014 343.429 174.196 345.327 176.272C345.183 208.177 345.327 232.508 345.756 249.266C345.828 250.877 348.245 251.969 353.007 252.542ZM387.114 211.668C390.802 211.668 393.72 213.44 395.869 216.985C398.053 220.494 399.145 225.955 399.145 233.367C399.145 240.779 398.053 246.24 395.869 249.749C393.72 253.258 390.802 255.013 387.114 255.013C385.073 255.013 383.211 254.583 381.528 253.724C379.881 252.864 378.466 251.539 377.285 249.749C376.139 247.959 375.244 245.721 374.599 243.035C373.955 240.314 373.632 237.091 373.632 233.367C373.632 229.679 373.955 226.474 374.599 223.753C375.244 220.996 376.139 218.74 377.285 216.985C378.466 215.195 379.881 213.87 381.528 213.011C383.211 212.116 385.073 211.668 387.114 211.668ZM387.114 258.558C390.444 258.558 393.434 257.931 396.083 256.678C398.733 255.424 400.989 253.688 402.851 251.468C404.749 249.212 406.199 246.544 407.202 243.465C408.204 240.385 408.706 237.02 408.706 233.367C408.706 229.715 408.204 226.349 407.202 223.27C406.199 220.19 404.749 217.54 402.851 215.32C400.989 213.064 398.733 211.31 396.083 210.057C393.434 208.803 390.444 208.177 387.114 208.177C383.569 208.177 380.364 208.803 377.5 210.057C374.635 211.31 372.2 213.047 370.195 215.267C368.225 217.487 366.704 220.154 365.629 223.27C364.555 226.349 364.018 229.715 364.018 233.367C364.018 237.055 364.555 240.439 365.629 243.519C366.704 246.598 368.225 249.266 370.195 251.521C372.2 253.742 374.635 255.478 377.5 256.731C380.364 257.949 383.569 258.558 387.114 258.558ZM388.994 205.975C393.326 205.975 397.176 206.637 400.542 207.962C403.943 209.287 406.808 211.167 409.135 213.602C411.463 216.001 413.235 218.883 414.453 222.249C415.67 225.615 416.279 229.321 416.279 233.367C416.279 237.378 415.67 241.066 414.453 244.432C413.235 247.798 411.463 250.698 409.135 253.133C406.844 255.532 403.997 257.394 400.595 258.719C397.194 260.079 393.326 260.76 388.994 260.76C384.697 260.76 380.847 260.079 377.446 258.719C374.08 257.394 371.233 255.532 368.906 253.133C366.614 250.698 364.86 247.815 363.642 244.485C362.425 241.119 361.816 237.413 361.816 233.367C361.816 229.321 362.425 225.615 363.642 222.249C364.86 218.883 366.632 216.001 368.959 213.602C371.287 211.167 374.134 209.287 377.5 207.962C380.865 206.637 384.697 205.975 388.994 205.975ZM381.206 233.367C381.206 244.933 383.802 251.342 388.994 252.596C394.293 251.342 396.943 244.933 396.943 233.367C396.943 221.909 394.293 215.481 388.994 214.085C383.802 215.481 381.206 221.909 381.206 233.367ZM419.394 207.371C430.53 207.765 441.666 207.765 452.802 207.371C453.626 209.806 453.626 211.972 452.802 213.87C450.475 214.228 448.917 214.658 448.129 215.159C447.377 215.625 447.216 216.484 447.646 217.737L453.5 233.475L460.107 217.737C460.68 216.412 460.626 215.535 459.946 215.105C459.301 214.64 457.815 214.228 455.488 213.87C454.664 211.686 454.664 209.52 455.488 207.371C463.043 207.586 470.545 207.586 477.993 207.371C478.816 209.52 478.816 211.686 477.993 213.87C475.307 214.085 473.391 214.497 472.246 215.105C471.1 215.678 470.24 216.627 469.667 217.952L450.761 260.76H445.122L428.31 217.845C427.773 216.591 426.824 215.696 425.463 215.159C424.139 214.586 422.115 214.157 419.394 213.87C418.57 211.686 418.57 209.52 419.394 207.371ZM451.191 209.358C441.129 209.716 431.085 209.716 421.059 209.358C420.665 210.325 420.665 211.167 421.059 211.883C423.745 212.205 425.786 212.688 427.182 213.333C428.579 213.978 429.653 215.231 430.405 217.093L446.679 258.558H449.311L467.68 217.093C469.22 213.834 472.12 212.098 476.381 211.883C476.739 211.167 476.739 210.325 476.381 209.358C470.008 209.573 463.58 209.573 457.099 209.358C456.741 210.325 456.741 211.167 457.099 211.883C458.496 211.954 459.606 212.133 460.429 212.42C461.289 212.671 462.058 213.19 462.739 213.978C463.455 214.729 463.455 215.768 462.739 217.093L450.278 246.526L439.643 217.093C439.249 216.126 439.249 215.32 439.643 214.676C440.073 213.995 440.914 213.476 442.167 213.118C443.421 212.76 444.692 212.509 445.981 212.366C447.306 212.187 449.042 212.026 451.191 211.883C451.549 211.167 451.549 210.325 451.191 209.358ZM510.004 211.668C512.869 211.668 514.946 212.599 516.235 214.461C517.524 216.287 518.168 218.579 518.168 221.336C518.168 222.374 517.989 223.556 517.631 224.881H496.684C497.794 220.405 499.584 217.093 502.055 214.944C504.562 212.76 507.211 211.668 510.004 211.668ZM496.147 228.533H525.419C525.992 226.743 526.279 224.899 526.279 223.001C526.279 218.812 525.079 215.302 522.68 212.474C520.317 209.609 516.539 208.177 511.347 208.177C504.58 208.177 498.886 210.63 494.267 215.535C489.648 220.441 487.338 226.671 487.338 234.227C487.338 242.283 489.541 248.353 493.945 252.435C498.349 256.517 503.523 258.558 509.467 258.558C513.872 258.558 517.954 257.376 521.713 255.013C525.509 252.614 528.284 249.015 530.039 244.217C529.537 243.644 528.839 243.25 527.944 243.035C527.801 243.25 527.371 243.841 526.655 244.808C525.974 245.739 525.473 246.419 525.151 246.849C524.829 247.243 524.238 247.833 523.378 248.621C522.555 249.373 521.749 249.928 520.961 250.286C520.209 250.644 519.243 251.002 518.061 251.36C516.879 251.683 515.59 251.844 514.194 251.844C508.68 251.844 504.293 250.215 501.035 246.956C497.776 243.662 496.075 239.24 495.932 233.689C495.932 232.436 496.004 230.717 496.147 228.533ZM527.084 240.511C529.34 241.012 531.167 242.14 532.563 243.895C530.522 249.48 527.371 253.688 523.11 256.517C518.849 259.345 514.301 260.76 509.467 260.76C502.879 260.76 497.167 258.54 492.333 254.1C487.535 249.66 485.136 243.035 485.136 234.227C485.136 226.242 487.589 219.546 492.495 214.139C497.436 208.696 504.418 205.975 513.442 205.975C527.084 205.975 533.906 211.65 533.906 223.001C533.906 225.221 533.387 227.799 532.348 230.735H503.505V234.227C503.684 238.559 504.866 242.086 507.05 244.808C509.235 247.493 512.242 249.069 516.074 249.534C518.33 249.319 520.192 248.549 521.66 247.225C523.128 245.9 524.936 243.662 527.084 240.511ZM515.966 221.336C515.966 217.397 514.641 215.016 511.992 214.192C508.841 215.159 506.495 217.988 504.956 222.679H515.859C515.859 222.535 515.877 222.321 515.913 222.034C515.948 221.748 515.966 221.515 515.966 221.336ZM563.125 226.761C564.02 223.466 565.864 220.262 568.657 217.146C571.45 214.031 574.296 212.474 577.197 212.474C580.598 212.474 582.299 213.566 582.299 215.75C582.299 217.719 581.368 218.973 579.506 219.51C579.005 220.226 579.005 221.067 579.506 222.034C581.44 222.034 583.015 221.443 584.233 220.262C585.486 219.08 586.113 217.433 586.113 215.32C586.113 213.1 585.432 211.364 584.072 210.11C582.747 208.821 581.01 208.177 578.862 208.177C576.069 208.177 573.258 209.305 570.429 211.561C567.636 213.781 565.201 216.269 563.125 219.026V209.788C562.838 209.215 562.229 208.75 561.298 208.392C556.5 210.647 550.95 212.116 544.648 212.796C544.433 213.655 544.433 214.497 544.648 215.32C549.482 215.535 552.937 216.269 555.014 217.522C555.301 230.879 555.265 241.585 554.907 249.642C554.835 252.291 551.792 254.01 545.776 254.798C545.239 255.765 545.239 256.606 545.776 257.322C555.157 256.893 565.38 256.893 576.445 257.322C576.946 256.606 576.946 255.765 576.445 254.798C567.958 254.01 563.68 252.291 563.608 249.642C563.286 242.373 563.125 234.746 563.125 226.761ZM571.181 249.534C571.253 250.931 573.67 252.023 578.432 252.811C579.614 255.174 579.542 257.448 578.217 259.632C563.035 259.131 551.559 259.023 543.789 259.31C542.464 257.197 542.392 255.031 543.574 252.811C549.589 252.023 552.633 250.931 552.705 249.534C553.134 239.329 553.17 229.088 552.812 218.812C550.449 218.095 547.19 217.63 543.037 217.415C542.213 215.267 542.213 212.993 543.037 210.594C549.016 210.236 555.354 208.624 562.05 205.76C565.917 206.189 568.818 207.353 570.751 209.251C573.759 207.067 576.463 205.975 578.862 205.975C581.655 205.975 583.929 206.798 585.683 208.445C587.438 210.092 588.315 212.384 588.315 215.32C588.315 218.113 587.491 220.298 585.844 221.873C584.197 223.449 582.084 224.236 579.506 224.236C577.107 224.236 575.102 223.431 573.491 221.819C572.023 223.789 571.11 225.579 570.751 227.19C570.751 234.961 570.895 242.409 571.181 249.534ZM606.738 257.645C605.019 258.217 603.336 258.916 601.689 259.739C600.006 258.701 598.896 257.645 598.359 256.57C598.431 256.355 598.538 255.621 598.681 254.368C598.824 253.115 598.968 251.647 599.111 249.964C599.29 248.281 599.433 246.544 599.541 244.754C599.648 242.964 599.702 241.442 599.702 240.188C601.385 239.401 603.981 239.007 607.49 239.007C607.884 239.007 608.278 239.007 608.671 239.007C609.065 239.007 609.477 239.025 609.907 239.061C612.485 247.439 616.012 251.987 620.488 252.703C622.314 252.417 623.71 251.754 624.677 250.716C625.68 249.642 626.181 248.442 626.181 247.117C626.181 246.15 625.913 245.255 625.375 244.432C624.838 243.572 624.122 242.785 623.227 242.068C622.332 241.352 621.276 240.69 620.058 240.081C618.876 239.472 617.623 238.882 616.298 238.309C614.973 237.7 613.631 237.127 612.27 236.59C610.909 236.017 609.602 235.426 608.349 234.817C607.024 234.209 605.771 233.475 604.589 232.615C603.408 231.72 602.369 230.717 601.474 229.607C600.579 228.462 599.863 227.208 599.326 225.848C598.824 224.487 598.574 223.019 598.574 221.443C598.574 219.76 598.86 218.006 599.433 216.18C600.006 214.354 600.991 212.688 602.387 211.185C603.784 209.681 605.664 208.445 608.027 207.479C610.39 206.476 613.362 205.975 616.943 205.975C620.917 205.975 623.854 206.189 625.751 206.619L627.739 205.975H631.391C631.857 209.018 632.412 211.865 633.056 214.515C633.736 217.164 634.488 219.635 635.312 221.927C633.772 223.466 631.91 224.236 629.726 224.236C628.509 222.804 627.381 221.515 626.342 220.369C625.304 219.188 624.301 218.167 623.334 217.308C622.403 216.448 621.472 215.75 620.542 215.213C619.646 214.676 618.715 214.3 617.749 214.085C615.385 214.479 614.204 215.553 614.204 217.308C614.204 218.704 614.812 219.922 616.03 220.96C617.247 221.998 618.769 222.947 620.595 223.807C622.421 224.666 624.409 225.49 626.557 226.277C628.741 227.029 630.8 227.835 632.734 228.694C634.13 229.303 635.437 230.091 636.655 231.058C637.908 232.024 639 233.152 639.931 234.441C640.862 235.695 641.596 237.109 642.133 238.685C642.67 240.224 642.939 241.889 642.939 243.68C642.939 246.329 642.259 248.711 640.898 250.823C639.573 252.936 637.801 254.726 635.581 256.194C633.396 257.662 630.89 258.79 628.061 259.578C625.232 260.366 622.35 260.76 619.414 260.76C614.365 260.76 610.139 259.721 606.738 257.645ZM619.038 258.558C623.514 258.558 627.345 257.233 630.532 254.583C633.719 251.933 635.312 248.961 635.312 245.667C635.312 242.444 634.327 239.669 632.358 237.342C630.389 234.979 628.007 233.152 625.214 231.863C622.421 230.574 619.611 229.393 616.782 228.318C613.953 227.208 611.554 225.919 609.584 224.451C607.615 222.983 606.63 221.264 606.63 219.295C606.63 216.788 607.561 214.891 609.423 213.602C611.285 212.312 613.47 211.668 615.976 211.668C618.626 211.668 620.989 212.492 623.066 214.139C625.143 215.786 627.685 218.418 630.693 222.034C631.66 222.034 632.358 221.801 632.788 221.336C631.463 217.54 629.493 214.407 626.879 211.937C624.301 209.43 620.989 208.177 616.943 208.177C611.178 208.177 607.042 209.555 604.536 212.312C602.029 215.034 600.776 218.077 600.776 221.443C600.776 224.308 601.725 226.761 603.623 228.802C605.556 230.807 607.866 232.365 610.551 233.475C613.273 234.549 615.976 235.623 618.662 236.697C621.347 237.771 623.639 239.168 625.537 240.887C627.434 242.605 628.383 244.682 628.383 247.117C628.383 249.158 627.506 250.984 625.751 252.596C623.997 254.207 621.544 255.013 618.393 255.013C614.597 255.013 611.661 253.813 609.584 251.414C607.543 248.979 605.825 245.595 604.428 241.263C603.175 241.263 602.333 241.37 601.904 241.585C601.904 244.163 601.778 247.117 601.528 250.447C601.277 253.777 601.027 255.747 600.776 256.355C601.027 256.714 601.367 257.036 601.796 257.322C603.264 256.284 604.392 255.192 605.18 254.046C608.331 255.8 610.784 256.982 612.539 257.591C614.329 258.235 616.495 258.558 619.038 258.558Z" fill="#EB5E28"/>
</svg>
